<?xml version="1.0" encoding="UTF-8"?>
<svg width="41px" height="55px" viewBox="0 0 41 55" version="1.1" xmlns="http://www.w3.org/2000/svg" xmlns:xlink="http://www.w3.org/1999/xlink">
    <!-- Generator: Sketch 43.2 (39069) - http://www.bohemiancoding.com/sketch -->
    <title>Jellyfish</title>
    <desc>Created with Sketch.</desc>
    <defs></defs>
    <g id="Page-1" stroke="none" stroke-width="1" fill="none" fill-rule="evenodd">
        <path d="M39.1028486,36.1911305 C37.9909542,36.1911305 37.089199,37.0921483 37.089199,38.2040427 C37.089199,39.6890264 35.8490091,40.8975111 34.3640255,40.8975111 C32.8790418,40.8975111 31.6388519,39.6890264 31.6388519,38.2040427 L31.6388519,21.7003741 C36.0628349,19.9012876 38.4864403,17.7947344 38.4864403,17.7947344 C38.3927993,7.93146423 30.3839154,0 20.5420278,0 C20.4837787,0 20.4351149,0 20.3768658,0.000737330504 C10.4560839,0.0943783045 2.54968888,8.21238715 2.64332986,18.1339064 C2.64332986,18.1339064 5.09495378,20.1659893 9.51893681,21.8802827 L9.51893681,35.1588677 C9.51893681,36.6438514 8.25367766,37.8515987 6.76869403,37.8515987 C5.28371039,37.8515987 4.04720714,36.6438514 4.04720714,35.1588677 C4.04720714,34.0469733 3.13144265,33.1459555 2.01954825,33.1459555 C0.908391181,33.1459555 0,34.0469733 0,35.1588677 C0,38.8639535 3.26637413,41.8781606 6.97145991,41.8781606 C10.6765457,41.8781606 13.9429198,38.8639535 13.9429198,35.1588677 L13.9429198,23.2539294 C14.6802503,23.4367874 15.4175808,23.5798295 15.4175808,23.7177103 L15.4175808,24.0849009 L15.4175808,48.1705392 C15.4175808,49.6555228 14.2481747,50.8632702 12.763191,50.8632702 C11.2782074,50.8632702 10.0896306,49.6555228 10.0896306,48.1705392 C10.0896306,47.0586448 9.19819804,46.1576269 8.08630364,46.1576269 C6.97440924,46.1576269 6.07855267,47.0586448 6.07855267,48.1705392 C6.07855267,51.8756249 9.25497248,54.889832 12.9600583,54.889832 C16.665144,54.889832 19.8415639,51.8756249 19.8415639,48.1705392 L19.8415639,24.1977125 C19.8415639,24.2080351 20.2588929,24.2139337 20.5494011,24.2139337 C20.6246089,24.2139337 20.4830414,24.2131964 20.5582491,24.2124591 C20.8848865,24.2095098 21.3162249,24.1991871 21.3162249,24.1829659 L21.3162249,47.6168039 C21.3162249,51.3218897 24.4653634,54.3360968 28.1704492,54.3360968 C31.875535,54.3360968 34.9575765,51.3218897 34.9575765,47.6168039 C34.9575765,46.5049095 34.0897385,45.6038917 32.9785814,45.6038917 C31.866687,45.6038917 30.9818904,46.5049095 30.9818904,47.6168039 C30.9818904,49.1017876 29.4777362,50.3095349 27.9927526,50.3095349 C26.5070316,50.3095349 25.0028774,49.1017876 25.0028774,47.6168039 L25.0028774,23.6572492 C25.7402079,23.5097831 26.4775384,23.3379851 27.2148689,23.1470165 L27.2148689,38.2040427 C27.2148689,41.9091285 30.4598604,44.9233356 34.1649462,44.9233356 C37.870032,44.9233356 41,41.9091285 41,38.2040427 C41,37.0921483 40.214743,36.1911305 39.1028486,36.1911305" id="Jellyfish" fill="#FFFFFF"></path>
    </g>
</svg>